<?xml version="1.0" encoding="UTF-8" standalone="no"?>
<!-- Generator: Adobe Illustrator 19.1.0, SVG Export Plug-In . SVG Version: 6.00 Build 0)  -->

<svg
   xmlns:dc="http://purl.org/dc/elements/1.1/"
   xmlns:cc="http://creativecommons.org/ns#"
   xmlns:rdf="http://www.w3.org/1999/02/22-rdf-syntax-ns#"
   xmlns:svg="http://www.w3.org/2000/svg"
   xmlns="http://www.w3.org/2000/svg"
   xmlns:sodipodi="http://sodipodi.sourceforge.net/DTD/sodipodi-0.dtd"
   xmlns:inkscape="http://www.inkscape.org/namespaces/inkscape"
   version="1.1"
   id="Layer_1"
   x="0px"
   y="0px"
   viewBox="-464 -79 720 240"
   xml:space="preserve"
   inkscape:version="0.91 r13725"
   sodipodi:docname="parses.svg"
   width="720"
   height="240"
   inkscape:export-filename="parses.png"
   inkscape:export-xdpi="68.449997"
   inkscape:export-ydpi="68.449997"><metadata
     id="metadata17"><rdf:RDF><cc:Work
         rdf:about=""><dc:format>image/svg+xml</dc:format><dc:type
           rdf:resource="http://purl.org/dc/dcmitype/StillImage" /><dc:title>logo</dc:title></cc:Work></rdf:RDF></metadata><defs
     id="defs15" /><sodipodi:namedview
     pagecolor="#ffffff"
     bordercolor="#666666"
     borderopacity="1"
     objecttolerance="10"
     gridtolerance="10"
     guidetolerance="10"
     inkscape:pageopacity="0"
     inkscape:pageshadow="2"
     inkscape:window-width="1855"
     inkscape:window-height="1056"
     id="namedview13"
     showgrid="false"
     showguides="false"
     inkscape:zoom="0.87941176"
     inkscape:cx="-99.888704"
     inkscape:cy="257.35493"
     inkscape:window-x="65"
     inkscape:window-y="24"
     inkscape:window-maximized="1"
     inkscape:current-layer="Layer_1"
     fit-margin-top="0"
     fit-margin-left="0"
     fit-margin-right="0"
     fit-margin-bottom="0" /><style
     type="text/css"
     id="style3">
	.st0{fill:#FFFFFF;}
	.st1{fill:#169CEE;}
</style><title
     id="title7">logo</title><desc
     id="desc9">Created with Sketch.</desc><path
     id="path8089"
     d="m -714.96488,92.8 0,-15.8 c -7.7,4.2 -16.2,5.9 -23.5,5.9 -14.9,0 -25.2,-7.5 -25.9,-24.6 l 52.9,0 c 0.7,-4.6 0.9,-9.4 0.9,-13.2 0,-19.1 -11.2,-33.6 -31.2,-33.8 -24.4,-0.2 -39.7,17.6 -39.7,45 l 0,0.4 c 0,25.9 16.7,41.2 41.5,41.2 8.3,-0.1 17.7,-1.6 25,-5.1 m -27.4,-67.8 c 10.7,0 16,7.5 16,19.1 l 0,0.9 -36.9,0 c 2.4,-13 9.7,-20 20.9,-20 m -80.8,35.5 1.8,0.7 c 12.1,4.4 14.9,7 14.9,12.5 0,6.4 -4.8,9.9 -14.9,9.9 -8.1,0 -17.6,-2.6 -27.2,-7.2 l 0,16.6 c 8.1,3.1 18,4.8 26.5,4.8 21.3,0 32.2,-10.1 32.2,-24.4 0,-12.5 -5.9,-20.2 -23.5,-26.5 l -1.8,-0.7 c -13.4,-4.8 -16,-7.5 -16,-12.3 0,-5.3 4.4,-9.2 14,-9.2 7.5,0 15.1,2.6 23.3,6.4 l 0,-15.5 c -7,-2.6 -14.5,-4.4 -22.8,-4.4 -18.8,0 -30.6,10.3 -30.6,24.8 0,11.6 5.9,17.9 24.1,24.5 m -63.2,-20.8 c 5.3,-8.1 12.9,-12.5 22.2,-12.5 3.1,0 6.6,0.4 9.2,1.3 l 0,-14.9 c -2.6,-0.9 -5.9,-1.5 -9.2,-1.5 -9.7,0 -16.9,4.2 -23.5,12.7 l -0.8,-11.7 -14.3,0 0,83.1 16.2,0 0,-56.5 0.2,0 z m -46.2,56.6 14.3,0 0,-56 c 0,-19.7 -9.9,-29.2 -30.5,-29.2 -9.9,0 -20.2,3.1 -27.9,7.2 l 0,16 c 9.2,-5.5 19.1,-8.8 27,-8.8 11,0 15.4,4.8 15.4,13.6 l 0,6.6 c -22.6,0.9 -36.2,4.6 -43.2,11.6 -5,4.8 -7.5,11.6 -7.5,18.4 0,14.3 10.5,22.4 24.8,22.4 9.2,0 18.4,-3.7 26.5,-11.4 l 1.1,9.6 z m -24.2,-11.9 c -7,0 -11.8,-3.7 -11.8,-9.9 0,-9.7 8.1,-15.1 34.2,-16 l 0,14.5 c -6.1,6.8 -13.4,11.4 -22.4,11.4 m -93.00002,-39 0,-42.8 21.3,0 c 14.5,0 22.8,6.8 22.8,21.1 l 0,0.2 c 0,14.5 -8.3,21.3 -22.8,21.3 l -21.3,0 0,0.2 z m -17.1,50.9 17.1,0 0,-35.6 20,0 c 25.7,0 40.80002,-13.6 40.80002,-36.6 l 0,-0.2 c 0,-22.8 -15.40002,-36.4 -40.80002,-36.4 l -37.1,0 0,108.8 z m -156.6,-26.1 -59,0 c -8.6,0 -13.6,5.3 -13.6,12.9 0,6.8 4.6,11.6 11.2,11.6 7.7,0 12.1,-5.3 12.5,-12.9 l 17.1,0 c -0.9,18.6 -12.5,28.5 -29.8,28.5 -16.2,0 -28.3,-11 -28.3,-27.4 0,-17.1 12.7,-29 31.8,-29 l 58.4,0 c 19.7,0 34.7,-14.5 34.7,-34 0,-19.7 -13.4,-33.6 -32.5,-33.6 -18.9,0 -34.2,13.8 -34.2,39.3 l 0,16.7 -17.3,0 0,-16.7 c 0,-33.8 21.7,-55.7 51.8,-55.7 28.7,0 49.6,20.6 49.6,49.8 0.2,29.2 -22.2,50.5 -52.4,50.5 m -20,90.8 c 67.1,0 120,-53.1 120,-120 0,-66.9 -52.9,-120 -120,-120 -67.1,0 -120,53.3 -120,120 0,66.9 52.9,120 120,120"
     class="st1"
     inkscape:connector-curvature="0"
     style="fill:#169cee" /><path
     sodipodi:nodetypes="csssccsssssssccsscccsssc"
     style="fill:#169cee"
     inkscape:connector-curvature="0"
     id="path8091"
     d="m -800.45485,399.96589 -59,0 c -8.6,0 -13.6,5.3 -13.6,12.9 0,6.8 4.6,11.6 11.2,11.6 7.7,0 12.1,-5.3 12.5,-12.9 l 17.1,0 c -0.9,18.6 -12.5,28.5 -29.8,28.5 -16.2,0 -28.3,-11 -28.3,-27.4 0,-17.1 12.7,-29 31.8,-29 l 58.4,0 c 19.7,0 34.7,-14.5 34.7,-34 0,-19.7 -13.4,-33.6 -32.5,-33.6 -18.9,0 -34.2,13.8 -34.2,39.3 l 0,16.7 -17.3,0 0,-16.7 c 0,-33.8 21.7,-55.7 51.8,-55.7 28.7,0 49.6,20.6 49.6,49.8 0.2,29.2 -22.2,50.5 -52.4,50.5 m -20,90.8 c 67.1,0 120,-53.1 120,-120 0,-66.9 -52.9,-120 -120,-120 -67.1,0 -120,53.3 -120,120 0,66.9 52.9,120 120,120"
     class="st1" /><path
     sodipodi:nodetypes="ccsccscsscccscccccssccssccssccssccsccscccccccccssccssccsscccscccccsssscccccsssscc"
     id="path8101"
     d="m -601.85027,-153.76075 0,-15.8 c -7.7,4.2 -16.2,5.9 -23.5,5.9 -14.9,0 -25.2,-7.5 -25.9,-24.6 l 52.9,0 c 0.7,-4.6 0.9,-9.4 0.9,-13.2 0,-19.1 -11.2,-33.6 -31.2,-33.8 -24.4,-0.2 -39.7,17.6 -39.7,45 l 0,0.4 c 0,25.9 16.7,41.2 41.5,41.2 8.3,-0.1 17.7,-1.6 25,-5.1 m -27.4,-67.8 c 10.7,0 16,7.5 16,19.1 l 0,0.9 -36.9,0 c 2.4,-13 9.7,-20 20.9,-20 m -80.8,35.5 1.8,0.7 c 12.1,4.4 14.9,7 14.9,12.5 0,6.4 -4.8,9.9 -14.9,9.9 -8.1,0 -17.6,-2.6 -27.2,-7.2 l 0,16.6 c 8.1,3.1 18,4.8 26.5,4.8 21.3,0 32.2,-10.1 32.2,-24.4 0,-12.5 -5.9,-20.2 -23.5,-26.5 l -1.8,-0.7 c -13.4,-4.8 -16,-7.5 -16,-12.3 0,-5.3 4.4,-9.2 14,-9.2 7.5,0 15.1,2.6 23.3,6.4 l 0,-15.5 c -7,-2.6 -14.5,-4.4 -22.8,-4.4 -18.8,0 -30.6,10.3 -30.6,24.8 0,11.6 5.9,17.9 24.1,24.5 m -63.2,-20.8 c 5.3,-8.1 12.9,-12.5 22.2,-12.5 3.1,0 6.6,0.4 9.2,1.3 l 0,-14.9 c -2.6,-0.9 -5.9,-1.5 -9.2,-1.5 -9.7,0 -16.9,4.2 -23.5,12.7 l -0.8,-11.7 -14.3,0 0,83.1 16.2,0 0,-56.5 z m -46.2,56.6 14.3,0 0,-56 c 0,-19.7 -9.9,-29.2 -30.5,-29.2 -9.9,0 -20.2,3.1 -27.9,7.2 l 0,16 c 9.2,-5.5 19.1,-8.8 27,-8.8 11,0 15.4,4.8 15.4,13.6 l 0,6.6 c -22.6,0.9 -36.2,4.6 -43.2,11.6 -5,4.8 -7.5,11.6 -7.5,18.4 0,14.3 10.5,22.4 24.8,22.4 9.2,0 18.4,-3.7 26.5,-11.4 z m -24.2,-11.9 c -7,0 -11.8,-3.7 -11.8,-9.9 0,-9.7 8.1,-15.1 34.2,-16 l 0,14.5 c -6.1,6.8 -13.4,11.4 -22.4,11.4 m -92.99999,-39 0,-42.8 21.3,0 c 14.5,0 22.8,6.8 22.8,21.1 l 0,0.2 c 0,14.5 -8.3,21.3 -22.8,21.3 l -21.3,0 z m -17.1,50.9 17.1,0 0,-35.6 20,0 c 25.7,0 40.79999,-13.6 40.79999,-36.6 l 0,-0.2 c 0,-22.8 -15.39999,-36.4 -40.79999,-36.4 l -37.1,0 z"
     class="st1"
     inkscape:connector-curvature="0"
     style="fill:#169cee" /><g
     id="g8107"
     transform="translate(-1900.4628,0)"><path
       style="fill:#169cee"
       inkscape:connector-curvature="0"
       class="st1"
       d="m 447.71494,89.583728 0,-15.8 c -7.7,4.2 -16.2,5.9 -23.5,5.9 -14.9,0 -25.2,-7.5 -25.9,-24.6 l 52.9,0 c 0.7,-4.6 0.9,-9.4 0.9,-13.2 0,-19.1 -11.2,-33.5999996 -31.2,-33.7999996 -24.4,-0.2 -39.7,17.5999996 -39.7,44.9999996 l 0,0.4 c 0,25.9 16.7,41.2 41.5,41.2 8.3,-0.1 17.7,-1.6 25,-5.1 m -27.4,-67.8 c 10.7,0 16,7.5 16,19.1 l 0,0.9 -36.9,0 c 2.4,-13 9.7,-20 20.9,-20 m -80.8,35.5 1.8,0.7 c 12.1,4.4 14.9,7 14.9,12.5 0,6.4 -4.8,9.9 -14.9,9.9 -8.1,0 -17.6,-2.6 -27.2,-7.2 l 0,16.6 c 8.1,3.1 18,4.8 26.5,4.8 21.3,0 32.2,-10.1 32.2,-24.4 0,-12.5 -5.9,-20.2 -23.5,-26.5 l -1.8,-0.7 c -13.4,-4.8 -16,-7.5 -16,-12.3 0,-5.3 4.4,-9.2 14,-9.2 7.5,0 15.1,2.6 23.3,6.4 l 0,-15.5 c -7,-2.5999996 -14.5,-4.3999996 -22.8,-4.3999996 -18.8,0 -30.6,10.2999996 -30.6,24.7999996 0,11.6 5.9,17.9 24.1,24.5 m -63.2,-20.8 c 5.3,-8.1 12.9,-12.5 22.2,-12.5 3.1,0 6.6,0.4 9.2,1.3 l 0,-14.9 c -2.6,-0.8999996 -5.9,-1.4999996 -9.2,-1.4999996 -9.7,0 -16.9,4.1999996 -23.5,12.6999996 l -0.8,-11.6999996 -14.3,0 0,83.0999996 16.2,0 0,-56.5 z m -46.2,56.6 14.3,0 0,-56 c 0,-19.7 -9.9,-29.1999996 -30.5,-29.1999996 -9.9,0 -20.2,3.0999996 -27.9,7.1999996 l 0,16 c 9.2,-5.5 19.1,-8.8 27,-8.8 11,0 15.4,4.8 15.4,13.6 l 0,6.6 c -22.6,0.9 -36.2,4.6 -43.2,11.6 -5,4.8 -7.5,11.6 -7.5,18.4 0,14.3 10.5,22.4 24.8,22.4 9.2,0 18.4,-3.7 26.5,-11.4 z m -24.2,-11.9 c -7,0 -11.8,-3.7 -11.8,-9.9 0,-9.7 8.1,-15.1 34.2,-16 l 0,14.5 c -6.1,6.8 -13.4,11.4 -22.4,11.4 m -92.99999,-39 0,-42.79999965 21.3,0 c 14.5,0 22.8,6.80000005 22.8,21.09999965 l 0,0.2 c 0,14.5 -8.3,21.3 -22.8,21.3 l -21.3,0 z m -17.099996,50.9 17.099996,0 0,-35.6 20,0 c 25.7,0 40.79999,-13.6 40.79999,-36.6 l 0,-0.2 c 0,-22.7999996 -15.39999,-36.4 -40.79999,-36.4 l -37.099996,0 z"
       id="path8109"
       sodipodi:nodetypes="ccsccscsscccscccccssccssccssccssccsccscccccccccssccssccsscccscccccsssscccccsssscc" /><path
       sodipodi:nodetypes="ccssccssccssccssc"
       id="path8111"
       d="m 487.385,57.283728 1.8,0.7 c 12.1,4.4 14.9,7 14.9,12.5 0,6.4 -4.8,9.9 -14.9,9.9 -8.1,0 -17.6,-2.6 -27.2,-7.2 l 0,16.6 c 8.1,3.1 18,4.8 26.5,4.8 21.3,0 32.2,-10.1 32.2,-24.4 0,-12.5 -5.9,-20.2 -23.5,-26.5 l -1.8,-0.7 c -13.4,-4.8 -16,-7.5 -16,-12.3 0,-5.3 4.4,-9.2 14,-9.2 7.5,0 15.1,2.6 23.3,6.4 l 0,-15.5 c -7,-2.5999996 -14.5,-4.3999996 -22.8,-4.3999996 -18.8,0 -30.6,10.2999996 -30.6,24.7999996 0,11.6 5.9,17.9 24.1,24.5"
       class="st1"
       inkscape:connector-curvature="0"
       style="fill:#169cee" /></g><path
     sodipodi:nodetypes="csssccssc"
     style="fill:#169cee"
     inkscape:connector-curvature="0"
     id="path8123"
     d="m -598.58897,370.141 59,0 c 8.6,0 13.6,5.3 13.6,12.9 0,6.8 -4.6,11.6 -11.2,11.6 -7.7,0 -12.1,-5.3 -12.5,-12.9 l -17.1,0 c 0.9,18.6 12.5,28.5 29.8,28.5 16.2,0 28.3,-11 28.3,-27.4 0,-17.1 -12.7,-29 -31.8,-29"
     class="st1" /><path
     class="st1"
     d="m -562.79599,370.141 -59,0 c -8.6,0 -13.6,5.3 -13.6,12.9 0,6.8 4.6,11.6 11.2,11.6 7.7,0 12.1,-5.3 12.5,-12.9 l 17.1,0 c -0.9,18.6 -12.5,28.5 -29.8,28.5 -16.2,0 -28.3,-11 -28.3,-27.4 0,-17.1 12.7,-29 31.8,-29 l 58.4,0 c 19.7,0 34.7,-14.5 34.7,-34 0,-19.7 -13.4,-33.6 -32.5,-33.6 -18.9,0 -34.2,13.8 -34.2,39.3 l 0,16.7 -17.3,0 0,-16.7 c 0,-33.8 21.7,-55.7 51.8,-55.7 28.7,0 49.6,20.6 49.6,49.8 0.2,29.2 -22.2,50.5 -52.4,50.5"
     id="path8125"
     inkscape:connector-curvature="0"
     style="fill:#169cee"
     sodipodi:nodetypes="csssccsssssssccsscc" /><g
     id="g8137"
     transform="translate(3.356815,0)"><g
       transform="translate(-274.81,0)"
       id="g8103"><path
         style="fill:#169cee"
         inkscape:connector-curvature="0"
         class="st1"
         d="m 447.71494,89.583728 0,-15.8 c -7.7,4.2 -16.2,5.9 -23.5,5.9 -14.9,0 -25.2,-7.5 -25.9,-24.6 l 52.9,0 c 0.7,-4.6 0.9,-9.4 0.9,-13.2 0,-19.1 -11.2,-33.5999996 -31.2,-33.7999996 -24.4,-0.2 -39.7,17.5999996 -39.7,44.9999996 l 0,0.4 c 0,25.9 16.7,41.2 41.5,41.2 8.3,-0.1 17.7,-1.6 25,-5.1 m -27.4,-67.8 c 10.7,0 16,7.5 16,19.1 l 0,0.9 -36.9,0 c 2.4,-13 9.7,-20 20.9,-20 m -80.8,35.5 1.8,0.7 c 12.1,4.4 14.9,7 14.9,12.5 0,6.4 -4.8,9.9 -14.9,9.9 -8.1,0 -17.6,-2.6 -27.2,-7.2 l 0,16.6 c 8.1,3.1 18,4.8 26.5,4.8 21.3,0 32.2,-10.1 32.2,-24.4 0,-12.5 -5.9,-20.2 -23.5,-26.5 l -1.8,-0.7 c -13.4,-4.8 -16,-7.5 -16,-12.3 0,-5.3 4.4,-9.2 14,-9.2 7.5,0 15.1,2.6 23.3,6.4 l 0,-15.5 c -7,-2.5999996 -14.5,-4.3999996 -22.8,-4.3999996 -18.8,0 -30.6,10.2999996 -30.6,24.7999996 0,11.6 5.9,17.9 24.1,24.5 m -63.2,-20.8 c 5.3,-8.1 12.9,-12.5 22.2,-12.5 3.1,0 6.6,0.4 9.2,1.3 l 0,-14.9 c -2.6,-0.8999996 -5.9,-1.4999996 -9.2,-1.4999996 -9.7,0 -16.9,4.1999996 -23.5,12.6999996 l -0.8,-11.6999996 -14.3,0 0,83.0999996 16.2,0 0,-56.5 z m -46.2,56.6 14.3,0 0,-56 c 0,-19.7 -9.9,-29.1999996 -30.5,-29.1999996 -9.9,0 -20.2,3.0999996 -27.9,7.1999996 l 0,16 c 9.2,-5.5 19.1,-8.8 27,-8.8 11,0 15.4,4.8 15.4,13.6 l 0,6.6 c -22.6,0.9 -36.2,4.6 -43.2,11.6 -5,4.8 -7.5,11.6 -7.5,18.4 0,14.3 10.5,22.4 24.8,22.4 9.2,0 18.4,-3.7 26.5,-11.4 z m -24.2,-11.9 c -7,0 -11.8,-3.7 -11.8,-9.9 0,-9.7 8.1,-15.1 34.2,-16 l 0,14.5 c -6.1,6.8 -13.4,11.4 -22.4,11.4 m -92.99999,-39 0,-42.79999965 21.3,0 c 14.5,0 22.8,6.80000005 22.8,21.09999965 l 0,0.2 c 0,14.5 -8.3,21.3 -22.8,21.3 l -21.3,0 z m -17.099996,50.9 17.099996,0 0,-35.6 20,0 c 25.7,0 40.79999,-13.6 40.79999,-36.6 l 0,-0.2 c 0,-22.7999996 -15.39999,-36.4 -40.79999,-36.4 l -37.099996,0 z"
         id="path8093"
         sodipodi:nodetypes="ccsccscsscccscccccssccssccssccssccsccscccccccccssccssccsscccscccccsssscccccsssscc" /><path
         sodipodi:nodetypes="ccssccssccssccssc"
         id="path8099"
         d="m 487.385,57.283728 1.8,0.7 c 12.1,4.4 14.9,7 14.9,12.5 0,6.4 -4.8,9.9 -14.9,9.9 -8.1,0 -17.6,-2.6 -27.2,-7.2 l 0,16.6 c 8.1,3.1 18,4.8 26.5,4.8 21.3,0 32.2,-10.1 32.2,-24.4 0,-12.5 -5.9,-20.2 -23.5,-26.5 l -1.8,-0.7 c -13.4,-4.8 -16,-7.5 -16,-12.3 0,-5.3 4.4,-9.2 14,-9.2 7.5,0 15.1,2.6 23.3,6.4 l 0,-15.5 c -7,-2.5999996 -14.5,-4.3999996 -22.8,-4.3999996 -18.8,0 -30.6,10.2999996 -30.6,24.7999996 0,11.6 5.9,17.9 24.1,24.5"
         class="st1"
         inkscape:connector-curvature="0"
         style="fill:#169cee" /></g><path
       class="st1"
       d="m -340.58863,161 c 67.1,0 120,-53.1 120,-120 0,-66.9 -52.9,-120 -120,-120 -67.1,0 -120,53.3 -120,120 0,66.9 52.9,120 120,120"
       id="path8131"
       inkscape:connector-curvature="0"
       style="fill:#169cee"
       sodipodi:nodetypes="csssc" /><g
       style="fill:#ffffff"
       transform="translate(-7.959866,-302.47491)"
       id="g8127"><path
         sodipodi:nodetypes="csssccsssssssccsscc"
         style="fill:#ffffff"
         inkscape:connector-curvature="0"
         id="path8117"
         d="m -324,370.141 -59,0 c -8.6,0 -13.6,5.3 -13.6,12.9 0,6.8 4.6,11.6 11.2,11.6 7.7,0 12.1,-5.3 12.5,-12.9 l 17.1,0 c -0.9,18.6 -12.5,28.5 -29.8,28.5 -16.2,0 -28.3,-11 -28.3,-27.4 0,-17.1 12.7,-29 31.8,-29 l 58.4,0 c 19.7,0 34.7,-14.5 34.7,-34 0,-19.7 -13.4,-33.6 -32.5,-33.6 -18.9,0 -34.2,13.8 -34.2,39.3 l 0,16.7 -17.3,0 0,-16.7 c 0,-33.8 21.7,-55.7 51.8,-55.7 28.7,0 49.6,20.6 49.6,49.8 0.2,29.2 -22.2,50.5 -52.4,50.5"
         class="st1" /><path
         class="st1"
         d="m -342.73613,370.141 59,0 c 8.6,0 13.6,5.3 13.6,12.9 0,6.8 -4.6,11.6 -11.2,11.6 -7.7,0 -12.1,-5.3 -12.5,-12.9 l -17.1,0 c 0.9,18.6 12.5,28.5 29.8,28.5 16.2,0 28.3,-11 28.3,-27.4 0,-17.1 -12.7,-29 -31.8,-29"
         id="path8121"
         inkscape:connector-curvature="0"
         style="fill:#ffffff"
         sodipodi:nodetypes="csssccssc" /></g></g><path
     sodipodi:nodetypes="csssccsssssssccsscc"
     style="fill:#169cee"
     inkscape:connector-curvature="0"
     id="path8133"
     d="m -1013.0741,370.141 -59,0 c -8.6,0 -13.6,5.3 -13.6,12.9 0,6.8 4.6,11.6 11.2,11.6 7.7,0 12.1,-5.3 12.5,-12.9 l 17.1,0 c -0.9,18.6 -12.5,28.5 -29.8,28.5 -16.2,0 -28.3,-11 -28.3,-27.4 0,-17.1 12.7,-29 31.8,-29 l 58.4,0 c 19.70008,0 34.70008,-14.5 34.70008,-34 0,-19.7 -13.4,-33.6 -32.50008,-33.6 -18.9,0 -34.2,13.8 -34.2,39.3 l 0,16.7 -17.3,0 0,-16.7 c 0,-33.8 21.7,-55.7 51.8,-55.7 28.70008,0 49.60008,20.6 49.60008,49.8 0.2,29.2 -22.2,50.5 -52.40008,50.5"
     class="st1" /><path
     class="st1"
     d="m -1267.07,487.45157 c 67.1,0 120,-53.1 120,-120 0,-66.9 -52.9,-120 -120,-120 -67.1,0 -120,53.3 -120,120 0,66.9 52.9,120 120,120"
     id="path8135"
     inkscape:connector-curvature="0"
     style="fill:#169cee"
     sodipodi:nodetypes="csssc" /></svg>